<?xml version="1.0" encoding="utf-8"?>
<!-- Svg Vector Icons : http://www.onlinewebfonts.com/icon -->
<!DOCTYPE svg PUBLIC "-//W3C//DTD SVG 1.1//EN" "http://www.w3.org/Graphics/SVG/1.1/DTD/svg11.dtd">
<svg version="1.1" xmlns="http://www.w3.org/2000/svg" xmlns:xlink="http://www.w3.org/1999/xlink" x="0px" y="0px" viewBox="0 0 1000 1000" enable-background="new 0 0 1000 1000" xml:space="preserve">
<metadata> Svg Vector Icons : http://www.onlinewebfonts.com/icon </metadata>
<g><g transform="translate(0.000000,511.000000) scale(0.100000,-0.100000)"><path d="M9458.4,4990.5c-1473.6-103-2665.7-423.3-3272-878.6C5813.4,3832.8,4925.6,2901.5,4085.9,1913c-233.4-274.6-295.2-336.3-334.1-327.2c-260.8,61.8-656.7,109.8-990.8,119l-393.5,13.7l-167-80.1c-322.6-155.6-787.1-540-1514.7-1256.2C422.6,121.4,214.4-98.2,221.3-112c6.9-11.4,384.4-167,837.5-347.8c761.9-306.6,821.4-334.1,800.8-375.2c-52.6-93.8,38.9-457.6,187.6-757.4c244.8-494.2,741.3-990.7,1231-1235.6c315.8-157.9,663.6-249.4,766.5-201.3c52.6,22.9,59.5,9.2,382.1-800.8c180.8-453,336.3-828.3,345.5-832.9c20.6-13.7,599.5,565.2,963.3,963.3c411.9,453,729.9,867.2,810,1059.4c87,210.5,82.4,645.3-16,1295.1l-45.8,295.2l96.1,82.4c1084.6,919.8,1979.2,1755,2345.3,2187.4c297.5,352.4,510.2,819.1,679.6,1494.1c135,524,247.1,1324.8,279.1,1979.2l16,313.5l-169.3-4.6C9636.9,4999.7,9515.6,4995.1,9458.4,4990.5z M9700.9,4613c-57.2-812.3-155.6-1453-313.5-2025c-45.8-169.3-82.4-258.6-103-258.6c-43.5,0-297.5,98.4-434.7,167c-508,256.3-1070.9,796.3-1382,1318c-98.4,164.8-251.7,510.3-251.7,565.2c0,125.8,1496.4,398.1,2411.7,439.3l86.9,4.6L9700.9,4613z M7122.2,4123.4c178.5-434.7,391.3-743.6,766.5-1121.2c384.4-384.4,750.5-626.9,1194.4-798.5l164.7-61.8l-57.2-139.6c-157.9-391.3-281.4-562.9-727.6-1020.5c-542.3-556-1302-1235.6-2471.2-2210.3C5262-1837.2,4019.5-2841.7,3973.8-2857.7c-57.2-22.9-370.7,66.4-553.7,153.3c-103,50.3-249.4,132.7-329.5,187.6c-180.8,123.5-514.8,443.9-659,636.1c-244.8,320.3-457.6,862.6-389,988.5c41.2,77.8,1205.8,1530.8,1732.1,2160c1274.5,1530.7,2171.4,2475.7,2649.6,2800.7c130.4,89.2,535.4,274.6,581.2,267.7C7021.6,4333.9,7074.2,4237.8,7122.2,4123.4z M2960.1,1528.6c334.1-34.3,686.4-96.1,686.4-119c0-11.4-75.5-112.1-167-219.7c-93.8-109.8-304.3-368.4-471.4-576.6C2493.4-25,1990-619.9,1960.2-619.9C1925.9-622.2,555.3-77.6,527.9-52.5c-43.5,43.5,1171.5,1162.4,1517,1398C2353.8,1553.8,2472.8,1579,2960.1,1528.6z M6378.6-1526c54.9-405,70.9-803.1,38.9-942.7c-36.6-151-187.6-379.8-489.6-739.1c-324.9-389-1070.8-1173.8-1091.4-1150.9c-11.4,9.1-148.7,340.9-304.3,732.2l-286,716.2l176.2,155.6c96.1,86.9,416.4,352.4,711.6,592.6c295.2,237.9,681.9,556,858,702.5c215.1,178.5,322.6,256.3,334.1,237.9C6335.1-1237.7,6358-1375,6378.6-1526z"/><path d="M6147.5,2775.7c-814.6-176.2-1240.2-1066.3-871.8-1819.1c98.4-201.3,366.1-469.1,567.5-567.4c510.2-249.4,1064-157.9,1466.7,244.8c514.8,514.8,514.8,1274.5,0,1789.3C6987.2,2745.9,6580,2869.5,6147.5,2775.7z M6701.2,2592.6c384.4-100.7,707-441.6,791.7-835.2c36.6-169.3,13.8-462.2-48-617.8c-103-270-370.7-537.7-640.7-640.7c-155.6-61.8-448.5-84.7-617.8-48.1c-290.6,61.8-581.2,274.6-727.6,533.1c-185.4,320.3-187.6,750.5-9.2,1077.7c80.1,148.7,286,352.4,432.5,432.5C6117.8,2622.3,6435.8,2661.3,6701.2,2592.6z"/><path d="M859.7-2619.7C443.2-3036.2,100-3395.4,100-3416c0-43.5,45.8-89.2,91.5-89.2S1747.4-1995.1,1747.4-1947c0,43.5-45.8,89.2-91.5,89.2C1637.6-1857.8,1278.4-2201,859.7-2619.7z"/><path d="M951.2-3809.5C484.4-4276.3,100-4676.7,100-4697.3c0-43.5,45.8-89.2,91.5-89.2s1739,1693.2,1739,1741.3c0,43.5-45.8,89.2-91.5,89.2C1820.7-2956.1,1420.2-3340.5,951.2-3809.5z"/><path d="M2141-3901.1c-416.4-416.4-759.7-775.7-759.7-796.3c0-43.5,45.8-89.2,89.2-89.2c45.8,0,1558.2,1510.2,1558.2,1555.9s-45.8,91.5-91.5,91.5C2919-3139.1,2559.7-3482.3,2141-3901.1z"/></g></g>
</svg>